M48
; DRILL file {KiCad 8.0.3} date 2024-07-04T10:47:13-0600
; FORMAT={-:-/ absolute / inch / decimal}
; #@! TF.CreationDate,2024-07-04T10:47:13-06:00
; #@! TF.GenerationSoftware,Kicad,Pcbnew,8.0.3
; #@! TF.FileFunction,Plated,1,2,PTH
FMAT,2
INCH
; #@! TA.AperFunction,Plated,PTH,ViaDrill
T1C0.0157
; #@! TA.AperFunction,Plated,PTH,ComponentDrill
T2C0.0197
; #@! TA.AperFunction,Plated,PTH,ComponentDrill
T3C0.0276
; #@! TA.AperFunction,Plated,PTH,ComponentDrill
T4C0.0281
; #@! TA.AperFunction,Plated,PTH,ComponentDrill
T5C0.0295
; #@! TA.AperFunction,Plated,PTH,ComponentDrill
T6C0.0315
; #@! TA.AperFunction,Plated,PTH,ComponentDrill
T7C0.0394
; #@! TA.AperFunction,Plated,PTH,ComponentDrill
T8C0.0400
; #@! TA.AperFunction,Plated,PTH,ComponentDrill
T9C0.0453
; #@! TA.AperFunction,Plated,PTH,ComponentDrill
T10C0.0701
; #@! TA.AperFunction,Plated,PTH,ComponentDrill
T11C0.1457
%
G90
G05
T1
X1.8Y-1.61
X1.82Y-2.37
X1.82Y-3.26
X1.83Y-4.06
X2.18Y-4.11
X2.5Y-3.73
X2.8Y-1.6
X2.92Y-3.75
X3.15Y-3.9
X3.15Y-4.04
X3.21Y-4.1314
X3.67Y-1.52
X3.68Y-4.11
T2
X0.9907Y-1.1
X0.9907Y-4.5
X1.0227Y-1.0227
X1.0227Y-1.1773
X1.0227Y-4.4227
X1.0227Y-4.5773
X1.1Y-0.9907
X1.1Y-1.2093
X1.1Y-4.3907
X1.1Y-4.6093
X1.175Y-1.835
X1.175Y-2.7
X1.1773Y-1.0227
X1.1773Y-1.1773
X1.1773Y-4.4227
X1.1773Y-4.5773
X1.2093Y-1.1
X1.2093Y-4.5
X1.5Y-4.4
X1.5104Y-1.2246
X2.15Y-3.64
X2.1604Y-1.1746
X2.1604Y-2.0246
X2.175Y-3.82
X2.798Y-2.0238
X3.483Y-2.3529
X3.49Y-3.029
X3.52Y-3.81
X3.9176Y-2.3529
X3.9176Y-2.9779
X4.3907Y-1.1
X4.3907Y-4.5
X4.4Y-2.38
X4.4Y-3.2312
X4.4227Y-1.0227
X4.4227Y-1.1773
X4.4227Y-4.4227
X4.4227Y-4.5773
X4.5Y-0.9907
X4.5Y-1.2093
X4.5Y-4.3907
X4.5Y-4.6093
X4.5773Y-1.0227
X4.5773Y-1.1773
X4.5773Y-4.4227
X4.5773Y-4.5773
X4.6093Y-1.1
X4.6093Y-4.5
T3
X1.625Y-3.5258
X1.625Y-3.6242
X1.6354Y-1.8004
X1.6354Y-1.8988
X1.6354Y-2.6504
X1.6354Y-2.7488
X1.65Y-4.3008
X1.65Y-4.3992
X1.725Y-3.5258
X1.725Y-3.6242
X1.7354Y-1.8004
X1.7354Y-1.8988
X1.7354Y-2.6504
X1.7354Y-2.7488
X1.775Y-4.3008
X1.775Y-4.3992
X1.925Y-1.1504
X1.925Y-1.2488
X1.925Y-2.0004
X1.925Y-2.0988
X1.925Y-2.8758
X1.925Y-2.9742
X1.925Y-3.6516
X1.925Y-3.75
X2.025Y-1.1504
X2.025Y-1.2488
X2.025Y-2.002
X2.025Y-2.1004
X2.025Y-2.8758
X2.025Y-2.9742
X2.025Y-3.6508
X2.025Y-3.7492
X2.5824Y-1.874
X2.5824Y-1.9724
X2.625Y-4.0524
X2.625Y-4.1508
X2.675Y-3.4
X2.675Y-3.4984
X2.6824Y-1.224
X2.6824Y-1.3224
X2.6824Y-1.874
X2.6824Y-1.9724
X2.725Y-4.0524
X2.725Y-4.1508
X2.7824Y-1.224
X2.7824Y-1.3224
X2.8Y-3.4008
X2.8Y-3.4992
X2.9Y-4.0508
X2.9Y-4.1492
X2.9324Y-1.874
X2.9324Y-1.9724
X3.0Y-4.0524
X3.0Y-4.1508
X3.0324Y-1.874
X3.0324Y-1.9724
X3.1Y-2.5298
X3.1Y-2.6282
X3.102Y-2.8318
X3.102Y-2.9302
X3.475Y-1.8008
X3.475Y-1.8992
X3.488Y-2.5258
X3.488Y-2.6242
X3.489Y-2.7808
X3.489Y-2.8792
X3.5246Y-4.3627
X3.5246Y-4.4611
X3.575Y-1.8008
X3.575Y-1.8992
X3.6246Y-4.3627
X3.6246Y-4.4611
X3.6434Y-2.5279
X3.7419Y-2.5279
X3.7426Y-2.8787
X3.7426Y-2.9771
X3.75Y-1.1508
X3.75Y-1.2492
X3.75Y-3.7369
X3.75Y-3.8353
X3.85Y-1.1508
X3.85Y-1.2492
X3.85Y-3.7369
X3.85Y-3.8353
T4
X2.2604Y-2.3496
X2.275Y-3.3
X2.3604Y-2.2496
X2.375Y-3.2
X2.4604Y-2.3496
X2.475Y-3.3
X3.05Y-4.35
X3.15Y-4.25
X3.15Y-4.45
X3.1574Y-1.1232
X3.1574Y-1.3232
X3.2574Y-1.2232
X3.9746Y-4.225
X3.975Y-1.4
X4.0746Y-4.125
X4.0746Y-4.325
X4.075Y-1.3
X4.075Y-1.5
X4.4Y-1.9
X4.4Y-2.1
X4.4Y-3.525
X4.4Y-3.725
X4.5Y-2.0
X4.5Y-3.625
T5
X3.24Y-2.529
X3.29Y-2.529
X3.29Y-2.779
X3.29Y-2.829
X3.29Y-2.879
X3.34Y-2.529
X3.6426Y-2.7171
X3.6926Y-2.7171
X3.7426Y-2.7171
T6
X1.35Y-2.975
X1.35Y-3.375
X1.35Y-3.775
X1.35Y-4.175
X1.3604Y-1.3746
X1.3604Y-1.7746
X1.3604Y-2.0746
X1.3604Y-2.4746
X1.5Y-2.975
X1.5Y-3.375
X1.5Y-3.775
X1.5Y-4.175
X1.5104Y-1.3746
X1.5104Y-1.7746
X1.5104Y-2.0746
X1.5104Y-2.4746
X1.675Y-3.8754
X1.675Y-3.9754
X1.675Y-4.0754
X1.675Y-4.1754
X1.6754Y-1.3754
X1.6754Y-1.4754
X1.6754Y-1.5754
X1.6754Y-1.6754
X1.6754Y-2.2254
X1.6754Y-2.3254
X1.6754Y-2.4254
X1.6754Y-2.5254
X1.6754Y-3.1004
X1.6754Y-3.2004
X1.6754Y-3.3004
X1.6754Y-3.4004
X1.975Y-3.8754
X1.975Y-3.9754
X1.975Y-4.0754
X1.975Y-4.1754
X1.9754Y-1.3754
X1.9754Y-1.4754
X1.9754Y-1.5754
X1.9754Y-1.6754
X1.9754Y-2.2254
X1.9754Y-2.3254
X1.9754Y-2.4254
X1.9754Y-2.5254
X1.9754Y-3.1004
X1.9754Y-3.2004
X1.9754Y-3.3004
X1.9754Y-3.4004
X2.15Y-3.075
X2.15Y-3.475
X2.1604Y-1.2996
X2.1604Y-1.6996
X2.1604Y-2.1496
X2.1604Y-2.5496
X2.175Y-3.925
X2.175Y-4.325
X2.3Y-3.925
X2.3Y-4.325
X2.3104Y-1.2996
X2.3104Y-1.6996
X2.5184Y-2.8029
X2.6169Y-2.8029
X2.6496Y-1.4504
X2.6496Y-1.7504
X2.6496Y-3.627
X2.6496Y-3.927
X2.7496Y-1.4504
X2.7496Y-1.7504
X2.7496Y-3.627
X2.7496Y-3.927
X2.8496Y-1.4504
X2.8496Y-1.7504
X2.8496Y-3.627
X2.8496Y-3.927
X2.9496Y-1.4504
X2.9496Y-1.7504
X2.9496Y-3.627
X2.9496Y-3.927
X3.15Y-3.75
X3.15Y-4.15
X3.1574Y-1.4232
X3.1574Y-1.8232
X3.525Y-3.9504
X3.525Y-4.0504
X3.525Y-4.1504
X3.525Y-4.2504
X3.5254Y-1.3754
X3.5254Y-1.4754
X3.5254Y-1.5754
X3.5254Y-1.6754
X3.725Y-1.935
X3.725Y-2.075
X3.725Y-3.475
X3.725Y-3.625
X3.825Y-3.9504
X3.825Y-4.0504
X3.825Y-4.1504
X3.825Y-4.2504
X3.8254Y-1.3754
X3.8254Y-1.4754
X3.8254Y-1.5754
X3.8254Y-1.6754
X3.9176Y-2.4779
X3.9176Y-2.8779
X3.975Y-1.625
X3.975Y-1.8
X3.975Y-3.825
X3.975Y-4.0
X4.0676Y-2.4779
X4.0676Y-2.8779
X4.125Y-1.935
X4.125Y-2.075
X4.125Y-3.475
X4.125Y-3.625
X4.375Y-1.625
X4.375Y-1.8
X4.375Y-3.825
X4.375Y-4.0
X4.5Y-1.4
X4.5Y-1.8
X4.5Y-3.85
X4.5Y-4.25
T7
X2.4182Y-2.6279
X2.5Y-4.15
X2.5Y-4.25
X2.5Y-4.35
X2.5074Y-1.3488
X2.5074Y-1.4488
X2.5074Y-1.5488
X2.5182Y-2.6279
X2.6182Y-2.6279
X3.3074Y-1.4738
X3.3074Y-1.5738
X3.3074Y-1.6738
X3.325Y-3.95
X3.325Y-4.05
X3.325Y-4.15
T8
X2.54Y-3.029
X2.6187Y-3.029
T9
X2.79Y-2.529
X2.79Y-2.629
X2.79Y-2.729
X2.79Y-2.929
X2.79Y-3.029
T10
X1.1Y-2.0314
X1.1Y-2.1873
X1.1Y-2.3432
X1.1Y-2.4991
X4.5Y-2.575
X4.5Y-2.7309
X4.5Y-2.8868
X4.5Y-3.0427
T11
X1.1Y-1.1
X1.1Y-4.5
X4.5Y-1.1
X4.5Y-4.5
M30
